<?xml version="1.0" encoding="utf-8"?>
<!-- Generator: Adobe Illustrator 28.2.0, SVG Export Plug-In . SVG Version: 6.00 Build 0)  -->
<svg version="1.1" id="Camada_1" xmlns="http://www.w3.org/2000/svg" xmlns:xlink="http://www.w3.org/1999/xlink" x="0px" y="0px"
	 viewBox="0 0 1920 1080" style="enable-background:new 0 0 1920 1080;" xml:space="preserve">
<style type="text/css">
	.st0{fill:#E4E4E4;}
	.st1{fill:#008FFC;}
	.st2{fill:#E3E3E3;}
	.st3{fill:#008DF9;}
</style>
<g>
	<path class="st0" d="M571.42,414.66c-2.33,11.45-4.56,22.38-6.84,33.6c-20.6,0-40.91,0-62.2,0c2.21-11.54,4.39-22.87,6.67-34.77
		c-100.01,0-199.66,0-300.32,0c6.54-15.75,12.75-30.69,19.14-46.08c96.59,0,193.22,0,290.24,0c1.1-5.07,2.12-9.74,3.29-15.1
		c-95.98,0-191.49,0-288.2,0c6.34-15.88,12.3-30.83,18.47-46.3c2.87,0,5.61,0,8.35,0c43.88,0,87.75,0.02,131.63-0.01
		c91.83-0.06,183.67-0.2,275.5-0.14c7.33,0.01,14.94,0.31,21.92,2.27c26.13,7.34,38.28,35.45,27.54,62.36
		c-9.75,24.43-37.41,43.8-63.87,44.09C625.97,414.89,599.2,414.66,571.42,414.66z M580.73,367.39c22.63,0,44.53,0.09,66.44-0.06
		c5.68-0.04,10.51-4.27,10.04-8.49c-0.68-6.01-5.47-5.76-9.88-5.76c-19.64-0.01-39.29-0.02-58.93,0.03c-1.63,0-3.25,0.51-4.92,0.79
		C582.56,358.42,581.75,362.39,580.73,367.39z"/>
	<path class="st1" d="M980.36,583.67c-30.92,0-61.45,0-92.29,0c-4.02-16.89-17.57-20.92-31.79-22.98
		c-20.34-2.96-40.73-2.25-60.75,2.79c-22.74,5.73-35.9,24.47-33.93,47.89c0.84,9.96,5.39,17.94,15.2,20.94
		c8.93,2.74,18.24,4.7,27.53,5.69c15.27,1.64,30.59,0.84,45.62-2.62c13.32-3.07,24.82-9.13,31.75-21.29c31.08,0,61.63,0,92.86,0
		c-0.88,2.87-1.61,5.25-2.44,7.98c-23.24,5.84-46.39,11.73-69.58,17.46c-42.24,10.44-84.5,20.79-126.75,31.18
		c-22.73,5.59-45.44,11.3-68.24,16.62c-2.82,0.66-6.72,0.12-9.11-1.43c-18.44-11.95-30.21-28.6-30.33-51.02
		c-0.18-34,5.9-66.62,27.86-94.13c17.41-21.81,41.17-33.81,67.44-41.09c37.81-10.48,76.43-11.59,115.3-8.65
		c19.91,1.5,39.45,4.93,57.91,12.86c20.85,8.96,36.79,22.69,42.8,45.68C982.12,559.89,982.59,572.45,980.36,583.67z"/>
	<path class="st1" d="M1632.71,493.3c-4.7,23.54-9.27,46.48-13.96,69.96c-34.15,0-67.97,0-102.23,0
		c-9.41,47.15-18.72,93.77-28.1,140.81c-30.35,0-60.57,0-91.22,0c9.3-46.78,18.52-93.18,27.93-140.51c-34.22,0-67.71,0-102.13,0
		c0.79-3.85,1.37-6.71,1.99-9.75c28.19-7.01,56.04-13.99,83.92-20.85c52.86-13,105.72-25.96,158.61-38.85
		c3.17-0.77,6.53-1.07,9.8-1.09c16.06-0.12,32.13-0.08,48.2-0.05C1627.75,492.97,1629.99,493.17,1632.71,493.3z"/>
	<path class="st1" d="M992.04,636.02c31.08-7.71,61.63-15.29,92.82-23.02c3.79,21.72,21.67,22.85,37.84,24.96
		c19.03,2.48,38.12,1.35,56.87-3.78c17.41-4.76,27.26-15.96,30.46-33.48c1.14-6.25,2.43-12.47,3.81-19.49
		c31.64-7.81,63.37-15.64,96.5-23.82c-1.99,10.24-3.5,19.19-5.49,28.03c-3.14,13.89-5.38,28.15-10.16,41.48
		c-13.04,36.36-40.62,57.68-76.17,69.72c-33.79,11.46-68.78,13.89-104.14,12.87c-22.22-0.64-44.24-2.95-65.55-9.77
		c-12.73-4.07-24.71-9.65-34.86-18.54C1000.7,669.56,993.24,655,992.04,636.02z"/>
	<path class="st2" d="M1064.24,354.79c-4.45-8.98-13.33-11.42-22.23-11.75c-12.42-0.47-24.94,0.23-37.33,1.36
		c-8.67,0.79-12.1,4.04-14.62,11.43c4.55,0.83,8.91,1.96,13.33,2.36c23.86,2.16,47.8,3.53,71.56,6.46
		c9.63,1.19,19.35,4.61,28.16,8.84c12.63,6.06,16.36,16.54,12.77,30.12c-4.05,15.31-13.9,25.74-27.63,32.93
		c-15.18,7.95-31.66,11.29-48.43,12.89c-27.5,2.62-55.07,2.99-82.26-2.73c-7.81-1.64-15.71-4.66-22.56-8.74
		c-13.31-7.91-19.03-23.1-15.78-38.54c20.03,0,40.13,0,60.85,0c4.69,9.19,13.86,11.93,23.43,12.19c11.92,0.32,23.93-0.38,35.81-1.58
		c6.12-0.62,12.55-2.51,15.63-11.15c-4.37-0.96-8.12-2.23-11.95-2.55c-20.33-1.68-40.72-2.67-60.99-4.82
		c-10.82-1.14-21.54-3.74-32.1-6.48c-4.54-1.18-8.89-3.91-12.74-6.73c-8.36-6.15-11.44-14.44-9.25-24.87
		c3.4-16.2,13.1-27.32,27.22-34.99c15.75-8.56,33.02-11.92,50.57-13.61c24.69-2.38,49.43-2.49,74.02,1.32
		c6.5,1.01,13.05,2.51,19.19,4.81c20.75,7.76,28.61,20.94,26.5,43.82C1105.42,354.79,1085.39,354.79,1064.24,354.79z"/>
	<path class="st2" d="M1333.42,355.16c-20.3,0-40.18,0-60.53,0c-4.75-9.04-13.64-11.87-22.88-12.16
		c-12.43-0.38-24.94,0.29-37.33,1.48c-5.85,0.56-12.14,2.43-14.72,10.96c4.28,0.95,8.26,2.34,12.32,2.66
		c15.76,1.25,31.59,1.72,47.3,3.34c13.14,1.35,26.17,3.82,39.22,5.99c2.72,0.45,5.35,1.61,7.93,2.66
		c20.16,8.25,25.6,21.89,16.52,41.66c-5.59,12.16-15.21,20.24-27.02,25.95c-14.42,6.98-29.91,10.16-45.66,11.67
		c-27.76,2.67-55.52,2.82-83.04-2.58c-5.2-1.02-10.4-2.61-15.27-4.72c-17.52-7.59-25.71-22.62-23.25-42.48c20.22,0,40.52,0,61.38,0
		c4.56,8.87,13.47,11.69,22.76,11.97c12.17,0.36,24.44-0.34,36.57-1.57c6.05-0.61,12.54-2.48,15.3-11.26
		c-4.4-0.91-8.19-2.1-12.05-2.42c-20.07-1.65-40.22-2.59-60.23-4.78c-11.3-1.24-22.5-4.03-33.53-6.93
		c-4.52-1.18-8.85-4.01-12.62-6.92c-7.72-5.95-10.55-13.94-8.6-23.72c3.28-16.52,13.11-27.86,27.53-35.63
		c15.78-8.5,33.04-11.85,50.59-13.53c24.69-2.37,49.44-2.5,74.01,1.39c7.22,1.15,14.48,3.08,21.25,5.84
		C1328.73,319.94,1336,333.19,1333.42,355.16z"/>
	<path class="st2" d="M684.68,448.29c36.44-48.16,72.1-95.29,107.72-142.36c23.26,0,46.18,0,69.94,0
		c16.85,47.18,33.74,94.5,50.82,142.35c-22.71,0-44.79,0-67.59,0c-1.75-5.72-3.57-11.71-5.48-17.98c-24.88,0-49.54,0-74.86,0
		c-3.92,5.63-8.12,11.65-12.53,17.99C730.54,448.29,708.2,448.29,684.68,448.29z M818.18,352.14
		c-10.46,15.41-20.03,29.49-29.99,44.17c14.8,0,28.38,0,42.52,0C826.57,381.7,822.59,367.66,818.18,352.14z"/>
	<path class="st1" d="M1088.2,593.55c-32.06,7.92-63.31,15.63-96.28,23.77c8.28-41.81,16.35-82.56,24.52-123.82
		c30.33,0,60.48,0,91.62,0C1101.45,526.81,1094.89,559.84,1088.2,593.55z"/>
	<path class="st3" d="M734.11,699.62c75.7-18.7,151.4-37.4,228.49-56.44c-5.84,10.69-12.75,18.67-20.75,25.77
		c-19.43,17.24-42.67,26.81-67.63,32.02c-43.63,9.1-87.52,9.46-131.46,1.81c-1.25-0.22-2.5-0.5-3.73-0.8
		c-1.6-0.4-3.19-0.85-4.78-1.28C734.2,700.34,734.15,699.98,734.11,699.62z"/>
	<path class="st1" d="M1231.28,493.36c31.09,0,61.32,0,92,0c-3.04,15.12-5.99,29.77-8.93,44.34c-32.2,7.95-63.71,15.74-96.56,23.85
		C1222.39,538.3,1226.79,516.04,1231.28,493.36z"/>
	<path class="st3" d="M1490.94,494.16c-53.49,13.2-106.99,26.4-162.08,40c2.75-14.16,5.32-27.43,7.93-40.9c51.72,0,102.9,0,154.07,0
		C1490.89,493.56,1490.92,493.86,1490.94,494.16z"/>
</g>
</svg>
